<svg width="12" height="10" viewBox="0 0 12 10" fill="none" xmlns="http://www.w3.org/2000/svg">
<path d="M2 0C1.46957 0 0.960859 0.210714 0.585786 0.585786C0.210714 0.960859 0 1.46957 0 2V2.201L6 5.432L12 2.202V2C12 1.46957 11.7893 0.960859 11.4142 0.585786C11.0391 0.210714 10.5304 0 10 0H2Z" fill="white"/>
<path d="M12 3.33691L6.237 6.43991C6.16416 6.47913 6.08273 6.49965 6 6.49965C5.91727 6.49965 5.83584 6.47913 5.763 6.43991L0 3.33691V7.99991C0 8.53035 0.210714 9.03905 0.585786 9.41413C0.960859 9.7892 1.46957 9.99991 2 9.99991H10C10.5304 9.99991 11.0391 9.7892 11.4142 9.41413C11.7893 9.03905 12 8.53035 12 7.99991V3.33691Z" fill="white"/>
</svg>
