<svg width="64" height="64" viewBox="0 0 64 64" fill="none" xmlns="http://www.w3.org/2000/svg">
<path d="M62.144 31.8507C62.144 30.9564 61.9306 30.1173 61.5733 29.3547C59.1893 21.664 48.0284 22.2258 32.1529 21.8507C29.4986 21.7884 31.0169 18.6542 31.9484 11.7742C32.5546 7.29955 29.6693 0.428436 24.8195 0.428436C16.8231 0.428436 24.5155 6.73599 17.4453 22.3342C13.6675 30.6684 5.22308 26 5.22308 34.3715V53.4275C5.22308 56.6862 5.54308 59.8187 10.1262 60.3342C14.5689 60.8338 13.5698 64 19.9786 64H52.0569C53.6281 63.9981 55.1344 63.373 56.2453 62.2618C57.3561 61.1506 57.9808 59.6441 57.9822 58.0729C57.9822 56.7182 57.5075 55.4844 56.7413 54.4853C58.5546 53.4702 59.7991 51.5538 59.7991 49.3315C59.7991 47.9804 59.3262 46.7467 58.5618 45.7493C60.3804 44.736 61.6284 42.8178 61.6284 40.592C61.6284 38.976 60.9742 37.5111 59.92 36.4391C60.611 35.89 61.1696 35.1925 61.5546 34.3982C61.9396 33.6039 62.141 32.7333 62.144 31.8507Z" fill="#FFDB5E"/>
<path d="M40.9244 37.776H56.2204C58.3004 37.776 60.2524 36.6631 61.3156 34.8729C61.5049 34.5191 61.5503 34.1058 61.4423 33.7193C61.3343 33.3328 61.0813 33.0029 60.736 32.7984C60.3907 32.5938 59.9798 32.5305 59.589 32.6216C59.1981 32.7126 58.8576 32.9511 58.6382 33.2871C58.3884 33.7063 58.0342 34.0536 57.6101 34.2951C57.1861 34.5365 56.7066 34.664 56.2187 34.6649H40.5564C39.0044 34.6649 37.7422 33.4027 37.7422 31.8507C37.7422 30.2987 39.0044 29.0365 40.5564 29.0365H51.0222C51.4348 29.0365 51.8304 28.8726 52.1222 28.5809C52.4139 28.2891 52.5778 27.8935 52.5778 27.4809C52.5778 27.0684 52.4139 26.6727 52.1222 26.381C51.8304 26.0892 51.4348 25.9254 51.0222 25.9254H40.5547C38.9837 25.9272 37.4777 26.5521 36.3669 27.6629C35.2561 28.7737 34.6312 30.2798 34.6293 31.8507C34.6293 33.6729 35.4738 35.2854 36.7716 36.3734C36.2099 36.923 35.7636 37.5793 35.4589 38.3037C35.1542 39.0282 34.9973 39.8061 34.9973 40.592C34.9973 42.4196 35.8471 44.0374 37.152 45.1236C36.5357 45.7299 36.0601 46.4643 35.7591 47.2747C35.458 48.0852 35.3388 48.9519 35.4099 49.8135C35.481 50.6752 35.7406 51.5107 36.1703 52.2608C36.6001 53.011 37.1895 53.6576 37.8969 54.1547C36.9264 55.2295 36.387 56.6248 36.3822 58.0729C36.3841 59.6438 37.009 61.1499 38.1198 62.2607C39.2306 63.3715 40.7366 63.9964 42.3076 63.9982H52.0569C53.0846 63.9955 54.0941 63.7269 54.9872 63.2185C55.8804 62.7101 56.6267 61.9792 57.1538 61.0969C57.3547 60.7428 57.4088 60.3241 57.3044 59.9306C57.2001 59.537 56.9456 59.2001 56.5957 58.9921C56.2457 58.7841 55.8281 58.7215 55.4326 58.8179C55.037 58.9143 54.695 59.1619 54.48 59.5076C54.2293 59.9269 53.8744 60.2743 53.4499 60.516C53.0253 60.7577 52.5454 60.8856 52.0569 60.8871H42.3076C40.7556 60.8871 39.4933 59.6249 39.4933 58.0729C39.4933 56.5209 40.7556 55.2587 42.3076 55.2587H53.8738C54.9016 55.2558 55.9113 54.9869 56.8044 54.4781C57.6976 53.9694 58.4438 53.2382 58.9707 52.3556C59.08 52.1799 59.1531 51.9841 59.1858 51.7798C59.2185 51.5755 59.2101 51.3667 59.1612 51.1657C59.1122 50.9646 59.0236 50.7754 58.9005 50.609C58.7775 50.4426 58.6225 50.3025 58.4447 50.1968C58.2668 50.091 58.0696 50.0219 57.8647 49.9933C57.6597 49.9647 57.4511 49.9773 57.2511 50.0303C57.0511 50.0834 56.8637 50.1758 56.6999 50.3021C56.536 50.4285 56.399 50.5863 56.2969 50.7662C56.0493 51.1885 55.6952 51.5384 55.27 51.7808C54.8447 52.0232 54.3633 52.1497 53.8738 52.1476H41.3173C40.5919 52.116 39.9067 51.8056 39.4046 51.2811C38.9024 50.7566 38.6221 50.0586 38.6221 49.3325C38.6221 48.6064 38.9024 47.9083 39.4046 47.3838C39.9067 46.8593 40.5919 46.5489 41.3173 46.5174H55.7013C56.729 46.5146 57.7385 46.246 58.6317 45.7376C59.5248 45.2292 60.2712 44.4983 60.7982 43.616C60.9991 43.2619 61.0532 42.8432 60.9489 42.4497C60.8445 42.0561 60.5901 41.7192 60.2401 41.5112C59.8902 41.3032 59.4726 41.2406 59.077 41.337C58.6815 41.4334 58.3395 41.681 58.1244 42.0267C57.8765 42.4485 57.5223 42.7979 57.0971 43.04C56.6719 43.2821 56.1906 43.4084 55.7013 43.4062H40.9244C40.199 43.3747 39.5138 43.0643 39.0117 42.5398C38.5095 42.0153 38.2292 41.3172 38.2292 40.5911C38.2292 39.865 38.5095 39.167 39.0117 38.6425C39.5138 38.118 40.199 37.8076 40.9244 37.776Z" fill="#EE9547"/>
</svg>
