<svg width="64" height="64" viewBox="0 0 64 64" fill="none" xmlns="http://www.w3.org/2000/svg">
<path d="M26.6667 55.1111C26.6667 59.0382 25.2604 62.2222 21.3333 62.2222H8.88888C1.77776 62.2222 1.77776 37.3333 8.88888 37.3333H21.3333C25.2604 37.3333 26.6667 40.5173 26.6667 44.4445V55.1111Z" fill="#553788"/>
<path d="M60.4445 58.6667H58.6667V40.8889H60.4445C60.916 40.8889 61.3681 40.7016 61.7015 40.3682C62.0349 40.0348 62.2222 39.5826 62.2222 39.1111C62.2222 38.6396 62.0349 38.1874 61.7015 37.854C61.3681 37.5206 60.916 37.3333 60.4445 37.3333H17.7778C10.6667 37.3333 10.6667 62.2222 17.7778 62.2222H60.4445C60.916 62.2222 61.3681 62.0349 61.7015 61.7015C62.0349 61.3681 62.2222 60.916 62.2222 60.4445C62.2222 59.973 62.0349 59.5208 61.7015 59.1874C61.3681 58.854 60.916 58.6667 60.4445 58.6667Z" fill="#9266CC"/>
<path d="M60.7502 58.6667H19.5556C16 58.6667 16 40.8889 19.5556 40.8889H60.7502C62.7129 40.8889 62.7129 58.6667 60.7502 58.6667Z" fill="#CCD6DD"/>
<path d="M20.4445 44.4444H61.9556C61.7156 42.3556 61.3156 40.8889 60.7502 40.8889H19.5556C16.6205 40.8889 16.1102 52.992 18.0213 57.2231C17.3245 51.9627 18.1316 44.4444 20.4445 44.4444Z" fill="#99AAB5"/>
<path d="M21.3333 14.2222C21.3333 16.1082 20.5841 17.9169 19.2505 19.2505C17.9169 20.5841 16.1082 21.3333 14.2222 21.3333H7.1111C-6.79493e-06 21.3333 -6.79493e-06 1.77777 7.1111 1.77777H14.2222C16.1082 1.77777 17.9169 2.52698 19.2505 3.86057C20.5841 5.19416 21.3333 7.0029 21.3333 8.88888V14.2222Z" fill="#226699"/>
<path d="M55.1111 17.7778H53.3333V5.33333H55.1111C55.5826 5.33333 56.0348 5.14603 56.3682 4.81263C56.7016 4.47923 56.8889 4.02704 56.8889 3.55555C56.8889 3.08405 56.7016 2.63187 56.3682 2.29847C56.0348 1.96507 55.5826 1.77777 55.1111 1.77777H12.4444C5.33331 1.77777 5.33331 21.3333 12.4444 21.3333H55.1111C55.5826 21.3333 56.0348 21.146 56.3682 20.8126C56.7016 20.4792 56.8889 20.027 56.8889 19.5555C56.8889 19.0841 56.7016 18.6319 56.3682 18.2985C56.0348 17.9651 55.5826 17.7778 55.1111 17.7778Z" fill="#55ACEE"/>
<path d="M55.4169 17.7778H14.2222C10.6667 17.7778 10.6667 5.33334 14.2222 5.33334H55.4169C57.3795 5.33334 57.3795 17.7778 55.4169 17.7778Z" fill="#CCD6DD"/>
<path d="M14.2222 8.8889H56.7556C56.5529 6.8889 56.1085 5.33334 55.4169 5.33334H14.2222C12.1014 5.33334 11.2551 9.75823 11.6658 13.3333C11.9431 10.9191 12.7876 8.8889 14.2222 8.8889Z" fill="#99AAB5"/>
<path d="M35.5555 30.2222C35.5555 32.1082 34.8063 33.917 33.4727 35.2505C32.1391 36.5841 30.3304 37.3333 28.4444 37.3333H10.6666C3.55554 37.3333 3.55554 21.3333 10.6666 21.3333H28.4444C30.3304 21.3333 32.1391 22.0825 33.4727 23.4161C34.8063 24.7497 35.5555 26.5585 35.5555 28.4445V30.2222Z" fill="#F4900C"/>
<path d="M62.2222 33.7778H60.4444V24.8889H62.2222C62.6937 24.8889 63.1459 24.7016 63.4793 24.3682C63.8127 24.0348 64 23.5826 64 23.1111C64 22.6396 63.8127 22.1874 63.4793 21.854C63.1459 21.5206 62.6937 21.3333 62.2222 21.3333H26.6666C19.5555 21.3333 19.5555 37.3333 26.6666 37.3333H62.2222C62.6937 37.3333 63.1459 37.146 63.4793 36.8126C63.8127 36.4792 64 36.0271 64 35.5556C64 35.0841 63.8127 34.6319 63.4793 34.2985C63.1459 33.9651 62.6937 33.7778 62.2222 33.7778Z" fill="#FFAC33"/>
<path d="M62.528 33.7778H28.4444C24.8889 33.7778 24.8889 24.8889 28.4444 24.8889H62.528C64.4907 24.8889 64.4907 33.7778 62.528 33.7778Z" fill="#CCD6DD"/>
<path d="M28.4445 28.4444H63.9716C63.856 26.5564 63.3778 24.8889 62.528 24.8889H28.4445C26.1796 24.8889 25.3636 28.4924 25.9858 31.1111C26.3378 29.6196 27.1538 28.4444 28.4445 28.4444Z" fill="#99AAB5"/>
</svg>
