<svg width="64" height="64" viewBox="0 0 64 64" fill="none" xmlns="http://www.w3.org/2000/svg">
<path d="M64 32C64 49.6729 49.6729 64 32 64C14.3289 64 0 49.6729 0 32C0 14.3289 14.3289 0 32 0C49.6729 0 64 14.3289 64 32Z" fill="#FFCC4D"/>
<path d="M28.4445 32C27.6996 32 27.0062 31.5289 26.7573 30.784C26.3965 29.7191 24.9493 26.6667 23.1111 26.6667C21.2231 26.6667 19.7547 29.9147 19.4649 30.784C19.3933 31.0083 19.2779 31.2162 19.1254 31.3955C18.9729 31.5749 18.7862 31.7221 18.5763 31.8287C18.3664 31.9353 18.1374 31.9992 17.9026 32.0166C17.6678 32.034 17.4318 32.0046 17.2085 31.93C16.9852 31.8555 16.7789 31.7374 16.6016 31.5825C16.4243 31.4276 16.2795 31.239 16.1757 31.0277C16.0718 30.8164 16.011 30.5865 15.9967 30.3515C15.9824 30.1165 16.015 29.881 16.0925 29.6587C16.3147 28.9902 18.4107 23.1111 23.1111 23.1111C27.8116 23.1111 29.9076 28.9902 30.1316 29.6604C30.2206 29.9277 30.2448 30.2123 30.2023 30.4908C30.1597 30.7692 30.0516 31.0336 29.8868 31.2621C29.7221 31.4905 29.5054 31.6766 29.2546 31.8049C29.0038 31.9332 28.7262 32.0001 28.4445 32ZM46.2222 32C45.8492 32 45.4857 31.8825 45.1831 31.6642C44.8806 31.446 44.6545 31.138 44.5369 30.784C44.176 29.7191 42.7253 26.6667 40.8889 26.6667C39.0009 26.6667 37.5307 29.9147 37.2409 30.784C37.0871 31.2254 36.7656 31.5884 36.3461 31.7946C35.9266 32.0007 35.4428 32.0333 34.9994 31.8854C34.556 31.7374 34.1888 31.4208 33.9771 31.0041C33.7654 30.5873 33.7264 30.104 33.8685 29.6587C34.0925 28.9902 36.1867 23.1111 40.8889 23.1111C45.5911 23.1111 47.6853 28.9902 47.9076 29.6604C47.9965 29.9276 48.0208 30.212 47.9783 30.4903C47.9359 30.7686 47.8279 31.0329 47.6634 31.2613C47.4988 31.4898 47.2823 31.6759 47.0318 31.8043C46.7812 31.9327 46.5038 31.9998 46.2222 32ZM32 39.1111C25.5591 39.1111 21.2853 38.3609 16 37.3333C14.7929 37.1004 12.4445 37.3333 12.4445 40.8889C12.4445 48 20.6133 56.8889 32 56.8889C43.3849 56.8889 51.5556 48 51.5556 40.8889C51.5556 37.3333 49.2071 37.0987 48 37.3333C42.7147 38.3609 38.4409 39.1111 32 39.1111Z" fill="#664500"/>
<path d="M16 40.8889C16 40.8889 21.3333 42.6667 32 42.6667C42.6667 42.6667 48 40.8889 48 40.8889C48 40.8889 45.6107 52.8889 32 52.8889C18.3893 52.8889 16 40.8889 16 40.8889Z" fill="white"/>
<path d="M32 49.056C25.6071 49.056 20.8498 48.3947 17.8898 47.7316L16.4231 44.4053C17.8862 44.96 23.3369 46 32.0018 46C40.8089 46 46.2898 44.9049 47.76 44.3325L46.5138 47.6071C43.6089 48.2827 38.6578 49.056 32 49.056Z" fill="#664500"/>
</svg>
