<svg width="175" height="175" viewBox="0 0 175 175" fill="none" xmlns="http://www.w3.org/2000/svg">
<path d="M9.72222 175C9.72222 175 0 175 0 165.278V9.72222C0 9.72222 0 0 9.72222 0H165.428C175 0 175 9.72222 175 9.72222V165.278C175 165.278 175 175 165.278 175H9.72222Z" fill="#31373D"/>
<path d="M92.3611 160.417C92.3611 160.417 92.3611 165.278 97.2222 165.278H121.528C126.389 165.278 126.389 160.417 126.389 160.417V24.3055H92.3611V160.417ZM136.111 24.3055V160.417C136.111 160.417 136.111 165.278 140.972 165.278H160.417C165.278 165.278 165.278 160.417 165.278 160.417V24.3055H136.111ZM48.6111 160.417C48.6111 160.417 48.6111 165.278 53.4722 165.278H77.7778C82.6389 165.278 82.6389 160.417 82.6389 160.417V24.3055H48.6111V160.417ZM9.72223 160.417C9.72223 160.417 9.72223 165.278 14.5833 165.278H34.0278C38.8889 165.278 38.8889 160.417 38.8889 160.417V24.3055H9.72223V160.417Z" fill="#E1E8ED"/>
<path d="M145.833 111.806C145.833 111.806 145.833 116.667 140.972 116.667H121.528C116.667 116.667 116.667 111.806 116.667 111.806V14.5833H145.833V111.806ZM102.083 111.806C102.083 111.806 102.083 116.667 97.2222 116.667H77.7778C72.9167 116.667 72.9167 111.806 72.9167 111.806V14.5833H102.083V111.806ZM58.3334 111.806C58.3334 111.806 58.3334 116.667 53.4722 116.667H34.0278C29.1667 116.667 29.1667 111.806 29.1667 111.806V14.5833H58.3334V111.806Z" fill="#31373D"/>
</svg>
